# xmcd
#
# Track frame offsets:
#	150
#	17451
#	36710
#	54223
#	73057
#	87812
#	102271
#	119055
#	139912
#	160891
#	177089
#	193050
#	212931
#	227722
#	247158
#
# Disc length: 3611 seconds
#
# Revision: 2
# Processed by: cddbd v1.5.2PL0 Copyright (c) Steve Scherf et al.
# Submitted via: EasyCDDAExtractor 16.0.9.1
#
DISCID=db0e190f
DTITLE=Paula Fernandes - Meus Encantos
DYEAR=2012
DGENRE=Country
TTITLE0=Cuidar mais de mim
TTITLE1=Se o coração viajar
TTITLE2=Eu sem você
TTITLE3=Harmonia do amor
TTITLE4=Céu vermelho
TTITLE5=Mineirinha Ferveu
TTITLE6=Na Contramão
TTITLE7=Além da Vida
TTITLE8=Meus Encantos
TTITLE9=Barco de Papel
TTITLE10=Aos Olhos do Tempo
TTITLE11=Nunca Mais eu e Você
TTITLE12=Versos de Amor
TTITLE13=Hoy Me Voy
TTITLE14=Long Live
EXTD=
EXTT0=
EXTT1=
EXTT2=
EXTT3=
EXTT4=
EXTT5=
EXTT6=
EXTT7=
EXTT8=
EXTT9=
EXTT10=
EXTT11=
EXTT12=
EXTT13=
EXTT14=
PLAYORDER=
